<svg width="408" height="303" viewBox="0 0 136 101" fill="none" xmlns="http://www.w3.org/2000/svg">
<path d="M54.797 85.576C55.821 85.576 56.6743 85.96 57.357 86.728C58.125 87.4107 58.509 88.264 58.509 89.288C58.509 90.3973 58.125 91.2933 57.357 91.976C56.6743 92.6587 55.821 93 54.797 93H6.797C5.68767 93 4.70633 92.7013 3.853 92.104C3.085 91.4213 2.701 90.44 2.701 89.16C2.701 88.2213 3.04233 87.3253 3.725 86.472L33.293 53.832C37.9863 48.712 41.485 44.0187 43.789 39.752C46.1783 35.4 47.373 31.5173 47.373 28.104C47.373 22.472 45.6663 17.9493 42.253 14.536C38.8397 11.1227 34.2317 9.41599 28.429 9.41599C25.7837 9.41599 23.1383 9.97066 20.493 11.08C17.933 12.1893 15.629 13.64 13.581 15.432C11.6183 17.224 10.0823 19.272 8.973 21.576C8.461 22.4293 7.90633 23.0267 7.309 23.368C6.797 23.7093 6.19967 23.88 5.517 23.88C4.493 23.88 3.597 23.5813 2.829 22.984C2.061 22.3013 1.677 21.4907 1.677 20.552C1.677 19.9547 1.805 19.3573 2.061 18.76C2.40233 18.1627 2.87167 17.48 3.469 16.712C5.005 14.0667 7.13833 11.6347 9.869 9.41599C12.5997 7.19733 15.629 5.448 18.957 4.168C22.3703 2.80266 25.6983 2.12 28.941 2.12C34.4023 2.12 39.0957 3.18666 43.021 5.31999C47.0317 7.368 50.1037 10.312 52.237 14.152C54.4557 17.9067 55.565 22.3867 55.565 27.592C55.565 32.0293 54.157 36.8933 51.341 42.184C48.6103 47.3893 44.5143 53.0213 39.053 59.08L14.093 87.112L12.813 85.576H54.797ZM125.672 85.576C126.696 85.576 127.549 85.96 128.232 86.728C129 87.4107 129.384 88.264 129.384 89.288C129.384 90.3973 129 91.2933 128.232 91.976C127.549 92.6587 126.696 93 125.672 93H77.672C76.5627 93 75.5813 92.7013 74.728 92.104C73.96 91.4213 73.576 90.44 73.576 89.16C73.576 88.2213 73.9173 87.3253 74.6 86.472L104.168 53.832C108.861 48.712 112.36 44.0187 114.664 39.752C117.053 35.4 118.248 31.5173 118.248 28.104C118.248 22.472 116.541 17.9493 113.128 14.536C109.715 11.1227 105.107 9.41599 99.304 9.41599C96.6587 9.41599 94.0133 9.97066 91.368 11.08C88.808 12.1893 86.504 13.64 84.456 15.432C82.4933 17.224 80.9573 19.272 79.848 21.576C79.336 22.4293 78.7813 23.0267 78.184 23.368C77.672 23.7093 77.0747 23.88 76.392 23.88C75.368 23.88 74.472 23.5813 73.704 22.984C72.936 22.3013 72.552 21.4907 72.552 20.552C72.552 19.9547 72.68 19.3573 72.936 18.76C73.2773 18.1627 73.7467 17.48 74.344 16.712C75.88 14.0667 78.0133 11.6347 80.744 9.41599C83.4747 7.19733 86.504 5.448 89.832 4.168C93.2453 2.80266 96.5733 2.12 99.816 2.12C105.277 2.12 109.971 3.18666 113.896 5.31999C117.907 7.368 120.979 10.312 123.112 14.152C125.331 17.9067 126.44 22.3867 126.44 27.592C126.44 32.0293 125.032 36.8933 122.216 42.184C119.485 47.3893 115.389 53.0213 109.928 59.08L84.968 87.112L83.688 85.576H125.672Z" fill="#A18DDE"/>
<defs>
<filter id="filter0_dd_2_6" x="0.677002" y="0.119995" width="134.707" height="100.88" filterUnits="userSpaceOnUse" color-interpolation-filters="sRGB">
<feFlood flood-opacity="0" result="BackgroundImageFix"/>
<feColorMatrix in="SourceAlpha" type="matrix" values="0 0 0 0 0 0 0 0 0 0 0 0 0 0 0 0 0 0 127 0" result="hardAlpha"/>
<feOffset dx="1"/>
<feGaussianBlur stdDeviation="1"/>
<feComposite in2="hardAlpha" operator="out"/>
<feColorMatrix type="matrix" values="0 0 0 0 0 0 0 0 0 0 0 0 0 0 0 0 0 0 0.35 0"/>
<feBlend mode="normal" in2="BackgroundImageFix" result="effect1_dropShadow_2_6"/>
<feColorMatrix in="SourceAlpha" type="matrix" values="0 0 0 0 0 0 0 0 0 0 0 0 0 0 0 0 0 0 127 0" result="hardAlpha"/>
<feOffset dx="4" dy="6"/>
<feGaussianBlur stdDeviation="1"/>
<feComposite in2="hardAlpha" operator="out"/>
<feColorMatrix type="matrix" values="0 0 0 0 0 0 0 0 0 0 0 0 0 0 0 0 0 0 0.35 0"/>
<feBlend mode="normal" in2="effect1_dropShadow_2_6" result="effect2_dropShadow_2_6"/>
<feBlend mode="normal" in="SourceGraphic" in2="effect2_dropShadow_2_6" result="shape"/>
</filter>
</defs>
</svg>
